<?xml version="1.0" encoding="UTF-8"?>
<svg xmlns="http://www.w3.org/2000/svg" xmlns:xlink="http://www.w3.org/1999/xlink" width="20px" height="20px" viewBox="0 0 20 20" version="1.1">
<defs>
<linearGradient id="linear0" gradientUnits="userSpaceOnUse" x1="55.9347" y1="29.979" x2="55.9347" y2="127.5925" gradientTransform="matrix(0.15625,0,0,0.15625,0,0)">
<stop offset="0.1042" style="stop-color:rgb(61.960784%,61.960784%,61.960784%);stop-opacity:1;"/>
<stop offset="0.4542" style="stop-color:rgb(51.764706%,57.254902%,59.607843%);stop-opacity:1;"/>
<stop offset="0.6732" style="stop-color:rgb(47.843137%,55.294118%,58.823529%);stop-opacity:1;"/>
<stop offset="0.9483" style="stop-color:rgb(31.372549%,36.862745%,39.215686%);stop-opacity:1;"/>
</linearGradient>
<linearGradient id="linear1" gradientUnits="userSpaceOnUse" x1="42.0312" y1="8.839" x2="42.0312" y2="29.155" gradientTransform="matrix(0.15625,0,0,0.15625,0,0)">
<stop offset="0" style="stop-color:rgb(45.882353%,45.882353%,45.882353%);stop-opacity:0;"/>
<stop offset="0.8282" style="stop-color:rgb(45.882353%,45.882353%,45.882353%);stop-opacity:1;"/>
<stop offset="0.9543" style="stop-color:rgb(45.882353%,45.882353%,45.882353%);stop-opacity:0;"/>
</linearGradient>
<linearGradient id="linear2" gradientUnits="userSpaceOnUse" x1="83.5678" y1="19.5368" x2="52.4534" y2="158.4737" gradientTransform="matrix(0.15625,0,0,0.15625,0,0)">
<stop offset="0.1528" style="stop-color:rgb(74.117647%,74.117647%,74.117647%);stop-opacity:1;"/>
<stop offset="1" style="stop-color:rgb(43.137255%,50.588235%,54.117647%);stop-opacity:1;"/>
</linearGradient>
<filter id="alpha" filterUnits="objectBoundingBox" x="0%" y="0%" width="100%" height="100%">
  <feColorMatrix type="matrix" in="SourceGraphic" values="0 0 0 0 1 0 0 0 0 1 0 0 0 0 1 0 0 0 1 0"/>
</filter>
<mask id="mask0">
  <g filter="url(#alpha)">
<rect x="0" y="0" width="20" height="20" style="fill:rgb(0%,0%,0%);fill-opacity:0.54902;stroke:none;"/>
  </g>
</mask>
<clipPath id="clip1">
  <rect x="0" y="0" width="20" height="20"/>
</clipPath>
<g id="surface5" clip-path="url(#clip1)">
<path style=" stroke:none;fill-rule:nonzero;fill:rgb(46.666667%,46.666667%,46.666667%);fill-opacity:1;" d="M 14.464844 6.464844 C 14.292969 6.472656 14.101562 6.4375 13.960938 6.433594 C 13.816406 6.425781 13.675781 6.457031 13.535156 6.460938 C 13.261719 6.460938 12.996094 6.34375 12.722656 6.34375 C 12.367188 6.335938 12.023438 6.523438 11.667969 6.492188 C 11.46875 6.476562 11.28125 6.390625 11.082031 6.390625 C 10.890625 6.390625 10.703125 6.464844 10.507812 6.476562 C 10.179688 6.496094 9.859375 6.324219 9.535156 6.367188 C 9.367188 6.390625 9.214844 6.46875 9.050781 6.503906 C 8.757812 6.566406 8.382812 6.402344 8.382812 6.066406 C 8.382812 5.832031 8.574219 5.640625 8.808594 5.640625 C 8.984375 5.640625 9.15625 5.65625 9.332031 5.640625 C 9.5625 5.621094 9.792969 5.574219 10.027344 5.597656 C 10.207031 5.617188 10.386719 5.675781 10.566406 5.65625 C 10.683594 5.640625 10.792969 5.597656 10.90625 5.566406 C 11.085938 5.519531 11.273438 5.511719 11.457031 5.546875 C 11.625 5.578125 11.785156 5.640625 11.953125 5.648438 C 12.179688 5.65625 12.402344 5.558594 12.632812 5.5625 C 12.816406 5.5625 12.996094 5.632812 13.183594 5.640625 C 13.355469 5.648438 13.523438 5.601562 13.695312 5.582031 C 14.058594 5.539062 14.894531 5.539062 14.894531 6.066406 C 14.894531 6.375 14.695312 6.453125 14.464844 6.464844 Z M 14.464844 6.464844 "/>
</g>
<mask id="mask1">
  <g filter="url(#alpha)">
<rect x="0" y="0" width="20" height="20" style="fill:rgb(0%,0%,0%);fill-opacity:0.54902;stroke:none;"/>
  </g>
</mask>
<clipPath id="clip2">
  <rect x="0" y="0" width="20" height="20"/>
</clipPath>
<g id="surface8" clip-path="url(#clip2)">
<path style=" stroke:none;fill-rule:nonzero;fill:rgb(46.666667%,46.666667%,46.666667%);fill-opacity:1;" d="M 10.800781 10.453125 C 10.625 10.449219 10.425781 10.394531 10.253906 10.417969 C 10.148438 10.433594 10.046875 10.460938 9.945312 10.476562 C 9.847656 10.488281 9.75 10.488281 9.648438 10.488281 C 9.28125 10.488281 8.410156 10.625 8.410156 10.035156 C 8.410156 9.863281 8.523438 9.691406 8.691406 9.636719 C 8.882812 9.574219 9.171875 9.679688 9.371094 9.707031 C 9.46875 9.71875 9.5625 9.734375 9.660156 9.734375 C 10.042969 9.734375 11.226562 9.289062 11.226562 10.035156 C 11.226562 10.199219 11.113281 10.394531 10.941406 10.4375 C 10.894531 10.449219 10.847656 10.453125 10.800781 10.453125 Z M 10.800781 10.453125 "/>
<path style=" stroke:none;fill-rule:nonzero;fill:rgb(46.666667%,46.666667%,46.666667%);fill-opacity:1;" d="M 14.441406 10.460938 C 14.308594 10.457031 14.179688 10.402344 14.039062 10.398438 C 13.917969 10.394531 13.800781 10.457031 13.679688 10.488281 C 13.378906 10.5625 13.054688 10.445312 12.75 10.5 C 12.546875 10.535156 12.449219 10.554688 12.289062 10.425781 C 12.160156 10.320312 12.054688 10.222656 12.054688 10.039062 C 12.054688 9.84375 12.1875 9.671875 12.378906 9.625 C 12.628906 9.5625 12.742188 9.683594 12.976562 9.734375 C 13.105469 9.761719 13.234375 9.707031 13.363281 9.675781 C 13.535156 9.632812 13.71875 9.625 13.890625 9.65625 C 13.949219 9.667969 14.007812 9.683594 14.066406 9.6875 C 14.273438 9.703125 14.433594 9.558594 14.632812 9.65625 C 14.773438 9.726562 14.867188 9.878906 14.867188 10.039062 C 14.867188 10.214844 14.75 10.386719 14.578125 10.441406 C 14.53125 10.453125 14.484375 10.460938 14.441406 10.460938 Z M 14.441406 10.460938 "/>
</g>
<mask id="mask2">
  <g filter="url(#alpha)">
<rect x="0" y="0" width="20" height="20" style="fill:rgb(0%,0%,0%);fill-opacity:0.54902;stroke:none;"/>
  </g>
</mask>
<clipPath id="clip3">
  <rect x="0" y="0" width="20" height="20"/>
</clipPath>
<g id="surface11" clip-path="url(#clip3)">
<path style=" stroke:none;fill-rule:nonzero;fill:rgb(46.666667%,46.666667%,46.666667%);fill-opacity:1;" d="M 13.492188 8.460938 C 13.238281 8.472656 12.929688 8.390625 12.746094 8.382812 C 12.527344 8.375 12.3125 8.453125 12.089844 8.476562 C 11.742188 8.515625 11.390625 8.414062 11.039062 8.414062 C 10.625 8.417969 9.359375 8.804688 9.359375 8.050781 C 9.359375 7.578125 9.789062 7.679688 10.09375 7.734375 C 10.394531 7.789062 10.699219 7.640625 11.003906 7.667969 C 11.167969 7.683594 11.324219 7.75 11.488281 7.765625 C 11.789062 7.796875 12.082031 7.65625 12.382812 7.664062 C 12.476562 7.664062 12.566406 7.679688 12.660156 7.6875 C 12.808594 7.699219 12.957031 7.683594 13.101562 7.660156 C 13.226562 7.640625 13.375 7.574219 13.5 7.59375 C 13.71875 7.625 13.914062 7.832031 13.914062 8.050781 C 13.917969 8.359375 13.726562 8.449219 13.492188 8.460938 Z M 13.492188 8.460938 "/>
</g>
<linearGradient id="linear3" gradientUnits="userSpaceOnUse" x1="55.9347" y1="99.8976" x2="55.9347" y2="136.13" gradientTransform="matrix(0.15625,0,0,0.15625,0,0)">
<stop offset="0.1042" style="stop-color:rgb(61.960784%,61.960784%,61.960784%);stop-opacity:1;"/>
<stop offset="0.4542" style="stop-color:rgb(51.764706%,57.254902%,59.607843%);stop-opacity:1;"/>
<stop offset="0.6732" style="stop-color:rgb(47.843137%,55.294118%,58.823529%);stop-opacity:1;"/>
<stop offset="0.9483" style="stop-color:rgb(31.372549%,36.862745%,39.215686%);stop-opacity:1;"/>
</linearGradient>
<linearGradient id="linear4" gradientUnits="userSpaceOnUse" x1="72.0653" y1="104.2402" x2="72.0653" y2="138.2678" gradientTransform="matrix(0.15625,0,0,0.15625,0,0)">
<stop offset="0.1528" style="stop-color:rgb(74.117647%,74.117647%,74.117647%);stop-opacity:1;"/>
<stop offset="1" style="stop-color:rgb(43.137255%,50.588235%,54.117647%);stop-opacity:1;"/>
</linearGradient>
</defs>
<g id="surface1">
<path style=" stroke:none;fill-rule:nonzero;fill:url(#linear0);" d="M 5.523438 3.292969 C 5.996094 2.109375 6.859375 1.199219 7.90625 0.820312 C 8.257812 0.695312 11.492188 0.625 11.492188 0.625 C 11.492188 0.625 11.867188 1.710938 12.496094 3.292969 C 12.699219 3.800781 13.015625 4.164062 13.6875 4.257812 C 13.90625 4.289062 14.074219 4.484375 14.074219 4.726562 L 14.074219 17.824219 L 3.40625 17.824219 L 3.40625 4.746094 C 3.40625 4.492188 3.589844 4.289062 3.820312 4.273438 C 4.972656 4.203125 5.308594 3.832031 5.523438 3.292969 Z M 5.523438 3.292969 "/>
<path style=" stroke:none;fill-rule:nonzero;fill:url(#linear1);" d="M 6.960938 1.34375 C 6.34375 1.8125 5.84375 2.488281 5.523438 3.292969 C 5.308594 3.832031 4.972656 4.203125 3.820312 4.273438 C 3.710938 4.277344 3.617188 4.328125 3.546875 4.398438 L 9.589844 4.398438 L 9.589844 1.34375 Z M 6.960938 1.34375 "/>
<path style=" stroke:none;fill-rule:nonzero;fill:url(#linear2);" d="M 8.003906 3.292969 C 8.632812 1.710938 9.960938 0.625 11.492188 0.625 C 13.023438 0.625 14.347656 1.710938 14.976562 3.292969 C 15.179688 3.800781 15.496094 4.164062 16.167969 4.257812 C 16.386719 4.289062 16.554688 4.484375 16.554688 4.726562 L 16.554688 17.824219 L 5.886719 17.824219 L 5.886719 4.746094 C 5.886719 4.492188 6.070312 4.289062 6.300781 4.273438 C 7.453125 4.203125 7.789062 3.832031 8.003906 3.292969 Z M 8.003906 3.292969 "/>
<path style=" stroke:none;fill-rule:nonzero;fill:rgb(74.117647%,74.117647%,74.117647%);fill-opacity:1;" d="M 5.886719 5.308594 C 5.960938 6.304688 6 7.300781 6.023438 8.296875 C 6.050781 9.289062 6.058594 10.285156 6.0625 11.28125 C 6.0625 12.277344 6.054688 13.273438 6.027344 14.265625 C 6 15.261719 5.960938 16.257812 5.890625 17.253906 C 5.816406 16.257812 5.777344 15.261719 5.75 14.265625 C 5.722656 13.273438 5.714844 12.277344 5.710938 11.28125 C 5.714844 10.285156 5.722656 9.289062 5.75 8.296875 C 5.773438 7.296875 5.8125 6.304688 5.886719 5.308594 Z M 5.886719 5.308594 "/>
<path style=" stroke:none;fill-rule:nonzero;fill:rgb(87.843137%,87.843137%,87.843137%);fill-opacity:1;" d="M 11.492188 0.625 C 10.957031 0.761719 10.476562 0.992188 10.039062 1.289062 C 9.605469 1.585938 9.214844 1.949219 8.882812 2.351562 C 8.800781 2.453125 8.734375 2.558594 8.660156 2.671875 L 8.445312 3.015625 C 8.304688 3.246094 8.160156 3.476562 7.996094 3.703125 C 7.953125 3.761719 7.917969 3.816406 7.863281 3.875 C 7.8125 3.933594 7.753906 3.984375 7.691406 4.027344 C 7.566406 4.113281 7.433594 4.171875 7.296875 4.214844 C 7.023438 4.296875 6.734375 4.304688 6.464844 4.261719 C 6.738281 4.234375 7.003906 4.175781 7.238281 4.0625 C 7.355469 4.003906 7.464844 3.9375 7.554688 3.855469 C 7.648438 3.773438 7.707031 3.679688 7.777344 3.5625 C 7.914062 3.332031 8.039062 3.089844 8.171875 2.851562 C 8.304688 2.617188 8.433594 2.371094 8.613281 2.140625 C 8.960938 1.6875 9.398438 1.320312 9.886719 1.042969 C 10.378906 0.769531 10.9375 0.597656 11.492188 0.625 Z M 11.492188 0.625 "/>
<use xlink:href="#surface5" mask="url(#mask0)"/>
<use xlink:href="#surface8" mask="url(#mask1)"/>
<use xlink:href="#surface11" mask="url(#mask2)"/>
<path style=" stroke:none;fill-rule:nonzero;fill:rgb(46.666667%,46.666667%,46.666667%);fill-opacity:1;" d="M 14.628906 9.65625 C 14.433594 9.558594 14.269531 9.703125 14.066406 9.6875 C 14.007812 9.683594 13.949219 9.667969 13.890625 9.65625 C 13.714844 9.625 13.535156 9.628906 13.363281 9.671875 C 13.234375 9.707031 13.101562 9.761719 12.972656 9.734375 C 12.742188 9.683594 12.625 9.558594 12.375 9.625 C 12.234375 9.660156 12.125 9.761719 12.078125 9.894531 C 12.121094 9.863281 12.167969 9.835938 12.222656 9.824219 C 12.472656 9.761719 12.585938 9.882812 12.820312 9.933594 C 12.949219 9.960938 13.078125 9.90625 13.207031 9.875 C 13.378906 9.832031 13.5625 9.824219 13.734375 9.859375 C 13.792969 9.867188 13.851562 9.882812 13.910156 9.890625 C 14.117188 9.90625 14.277344 9.757812 14.476562 9.855469 C 14.617188 9.929688 14.710938 10.078125 14.710938 10.238281 C 14.710938 10.289062 14.703125 10.335938 14.683594 10.382812 C 14.796875 10.304688 14.867188 10.171875 14.867188 10.035156 C 14.867188 9.875 14.773438 9.726562 14.628906 9.65625 Z M 14.628906 9.65625 "/>
<path style=" stroke:none;fill-rule:nonzero;fill:rgb(46.666667%,46.666667%,46.666667%);fill-opacity:1;" d="M 9.65625 9.734375 C 9.5625 9.734375 9.464844 9.722656 9.371094 9.707031 C 9.171875 9.679688 8.882812 9.574219 8.6875 9.636719 C 8.570312 9.675781 8.480469 9.773438 8.4375 9.890625 C 8.46875 9.867188 8.5 9.851562 8.535156 9.839844 C 8.726562 9.777344 9.015625 9.882812 9.214844 9.910156 C 9.3125 9.921875 9.40625 9.9375 9.503906 9.9375 C 9.886719 9.9375 11.070312 9.492188 11.070312 10.238281 C 11.070312 10.289062 11.058594 10.339844 11.039062 10.390625 C 11.152344 10.3125 11.226562 10.167969 11.226562 10.035156 C 11.226562 9.289062 10.042969 9.738281 9.65625 9.734375 Z M 9.65625 9.734375 "/>
<path style=" stroke:none;fill-rule:nonzero;fill:rgb(46.666667%,46.666667%,46.666667%);fill-opacity:1;" d="M 13.503906 7.59375 C 13.378906 7.574219 13.230469 7.640625 13.105469 7.660156 C 12.960938 7.6875 12.8125 7.699219 12.664062 7.6875 C 12.570312 7.683594 12.476562 7.664062 12.382812 7.664062 C 12.082031 7.65625 11.789062 7.796875 11.492188 7.765625 C 11.328125 7.75 11.171875 7.683594 11.007812 7.667969 C 10.703125 7.640625 10.394531 7.792969 10.09375 7.734375 C 9.824219 7.683594 9.449219 7.601562 9.375 7.925781 C 9.53125 7.855469 9.757812 7.902344 9.941406 7.9375 C 10.242188 7.992188 10.546875 7.84375 10.851562 7.871094 C 11.015625 7.886719 11.171875 7.953125 11.335938 7.96875 C 11.636719 8 11.929688 7.859375 12.230469 7.867188 C 12.324219 7.867188 12.414062 7.882812 12.507812 7.890625 C 12.65625 7.902344 12.804688 7.886719 12.953125 7.863281 C 13.078125 7.84375 13.222656 7.777344 13.351562 7.796875 C 13.566406 7.828125 13.761719 8.035156 13.761719 8.253906 C 13.761719 8.308594 13.753906 8.359375 13.742188 8.398438 C 13.847656 8.34375 13.914062 8.234375 13.914062 8.050781 C 13.917969 7.832031 13.722656 7.625 13.503906 7.59375 Z M 13.503906 7.59375 "/>
<path style=" stroke:none;fill-rule:nonzero;fill:rgb(46.666667%,46.666667%,46.666667%);fill-opacity:1;" d="M 13.695312 5.582031 C 13.523438 5.601562 13.355469 5.648438 13.183594 5.640625 C 12.996094 5.632812 12.816406 5.5625 12.632812 5.5625 C 12.402344 5.558594 12.179688 5.65625 11.953125 5.648438 C 11.785156 5.640625 11.621094 5.578125 11.457031 5.546875 C 11.273438 5.511719 11.085938 5.519531 10.90625 5.566406 C 10.792969 5.597656 10.683594 5.644531 10.566406 5.65625 C 10.386719 5.675781 10.207031 5.617188 10.027344 5.597656 C 9.792969 5.574219 9.5625 5.621094 9.332031 5.640625 C 9.15625 5.65625 8.984375 5.640625 8.808594 5.640625 C 8.625 5.640625 8.46875 5.757812 8.410156 5.921875 C 8.480469 5.871094 8.5625 5.84375 8.65625 5.84375 C 8.828125 5.84375 9 5.859375 9.175781 5.84375 C 9.40625 5.820312 9.640625 5.777344 9.871094 5.800781 C 10.054688 5.820312 10.230469 5.878906 10.414062 5.859375 C 10.527344 5.84375 10.636719 5.796875 10.75 5.769531 C 10.929688 5.71875 11.121094 5.714844 11.300781 5.746094 C 11.46875 5.777344 11.628906 5.84375 11.796875 5.851562 C 12.027344 5.859375 12.25 5.761719 12.476562 5.761719 C 12.664062 5.765625 12.84375 5.832031 13.027344 5.839844 C 13.199219 5.847656 13.371094 5.804688 13.542969 5.785156 C 13.902344 5.742188 14.738281 5.742188 14.738281 6.269531 C 14.738281 6.320312 14.730469 6.363281 14.71875 6.40625 C 14.824219 6.347656 14.890625 6.25 14.890625 6.066406 C 14.894531 5.539062 14.058594 5.539062 13.695312 5.582031 Z M 13.695312 5.582031 "/>
<path style=" stroke:none;fill-rule:nonzero;fill:url(#linear3);" d="M 14.574219 19.375 L 2.90625 19.375 C 2.730469 19.375 2.585938 19.230469 2.585938 19.054688 L 2.585938 16.988281 C 2.585938 16.8125 2.730469 16.667969 2.90625 16.667969 L 14.574219 16.667969 C 14.75 16.667969 14.894531 16.8125 14.894531 16.988281 L 14.894531 19.054688 C 14.894531 19.230469 14.75 19.375 14.574219 19.375 Z M 14.574219 19.375 "/>
<path style=" stroke:none;fill-rule:nonzero;fill:url(#linear4);" d="M 17.125 19.375 L 5.394531 19.375 C 5.234375 19.375 5.105469 19.246094 5.105469 19.085938 L 5.105469 16.957031 C 5.105469 16.796875 5.234375 16.667969 5.394531 16.667969 L 17.125 16.667969 C 17.285156 16.667969 17.414062 16.796875 17.414062 16.957031 L 17.414062 19.085938 C 17.414062 19.246094 17.285156 19.375 17.125 19.375 Z M 17.125 19.375 "/>
<path style=" stroke:none;fill-rule:nonzero;fill:rgb(87.843137%,87.843137%,87.843137%);fill-opacity:1;" d="M 5.105469 16.992188 C 5.09375 16.859375 5.175781 16.71875 5.308594 16.664062 C 5.375 16.632812 5.453125 16.632812 5.515625 16.632812 L 5.710938 16.621094 L 6.503906 16.582031 C 7.03125 16.5625 7.5625 16.542969 8.089844 16.53125 C 9.144531 16.503906 10.203125 16.496094 11.257812 16.492188 C 12.316406 16.496094 13.371094 16.503906 14.429688 16.53125 C 14.957031 16.542969 15.484375 16.5625 16.015625 16.582031 L 16.804688 16.621094 L 17.003906 16.632812 C 17.066406 16.636719 17.144531 16.632812 17.210938 16.664062 C 17.34375 16.722656 17.421875 16.859375 17.414062 16.992188 C 17.40625 16.859375 17.308594 16.746094 17.191406 16.710938 C 17.132812 16.691406 17.070312 16.703125 17.003906 16.703125 L 16.804688 16.714844 L 16.015625 16.753906 C 15.484375 16.773438 14.957031 16.792969 14.429688 16.804688 C 13.375 16.832031 12.316406 16.839844 11.257812 16.84375 C 10.203125 16.839844 9.148438 16.832031 8.089844 16.804688 C 7.5625 16.792969 7.03125 16.773438 6.503906 16.753906 L 5.710938 16.714844 L 5.515625 16.703125 C 5.445312 16.703125 5.386719 16.691406 5.328125 16.710938 C 5.210938 16.746094 5.113281 16.859375 5.105469 16.992188 Z M 5.105469 16.992188 "/>
</g>
</svg>
